<?xml version="1.0" encoding="UTF-8"?>
<svg id="katman_2" data-name="katman 2" xmlns="http://www.w3.org/2000/svg" viewBox="0 0 1345.74 420.04">
  <defs>
    <style>
      .cls-1 {
        fill: #fff;
      }
    </style>
  </defs>
  <g id="katman_1" data-name="katman 1">
    <g>
      <path class="cls-1" d="M1345.74,305.04v115H0C0,280.03,0,140.01,0,0,60.3,0,120.59,0,180.89,0c-.52.11-1.03.26-1.55.31-6.97.58-13.38,2.93-19.25,6.58-11.83,7.36-20.17,17.83-25.97,30.34-8.24,17.76-10.87,36.32-6.81,55.58,2.65,12.56,8.01,23.77,18.07,32.21,9.91,8.31,21.28,11.14,33.9,8.15,13.11-3.1,23.03-11.07,30.91-21.59,12.56-16.75,17.97-35.81,17.25-56.65-.36-10.47-2.69-20.48-7.5-29.82-5.27-10.23-12.67-18.37-23.72-22.45-3.48-1.29-7.25-1.79-10.89-2.66,386.8,0,773.61,0,1160.41,0v299.39c-.29-.87-.62-1.74-.88-2.62-2.44-8.38-7.71-14.05-16.14-16.54-6.88-2.03-13.12-.26-19.01,3.45-15.48,9.77-31.88,17.61-49.4,22.96-12.15,3.71-24.49,6.26-37.33,4.93-15.25-1.57-25.55-10.43-28.48-24.77-.69-3.35-.81-6.82-1.22-10.54,1.23.33,1.88.49,2.51.68,10.78,3.23,21.68,5.83,32.97,6.47,12.37.7,24.67.27,36.53-3.64,29.6-9.74,52.14-28.3,67.38-55.4,10.07-17.9,14.41-37.33,10.99-57.73-3.7-22.07-16.01-37.94-37.39-45.71-20.56-7.48-41.7-8.07-63.02-3.69-23.89,4.9-45,15.57-63.61,31.2-20.45,17.18-35.77,38.12-44.76,63.31-8.2,22.98-9.76,46.74-6.27,70.8,2.67,18.38,8.64,35.62,19.25,51.04,12.47,18.12,28.88,30.8,50.64,35.79,20.02,4.59,39.84,3.17,59.36-2.73,22.58-6.83,43.3-17.53,62.76-30.77,5.86-3.99,11.49-8.19,15.84-13.9,3.88-5.09,7.93-10.06,9.04-16.65.02-.11.16-.21.25-.31ZM877.88,325.53c0,2.69-.06,5.82.01,8.96.32,13.58.61,27.15,1.07,40.73.2,5.95,2.17,11.31,6.34,15.74,7.65,8.1,19.7,10.15,30.3,5.04,5.96-2.87,11.05-7.14,13.17-13.32,6.74-19.69,13.18-39.5,19.21-59.42,8.62-28.47,16.59-57.14,25.16-85.63,10.33-34.35,20.89-68.62,31.54-102.87,6.68-21.49,13.87-42.81,20.51-64.31,2.19-7.09,4.05-14.42,4.86-21.78,1.42-12.9-5.46-24.79-16.49-29.76-10.66-4.81-24.77-5.41-35.35,5.26-7.75,7.83-14.57,16.35-20.18,25.85-13.66,23.08-24.45,47.54-34.7,72.26-1.6,3.87-3.24,7.72-4.71,11.22-6.9-3.9-13.43-8.11-20.37-11.44-30.27-14.48-59.48-12.79-87.23,6.58-16.4,11.45-30.64,25.21-42.54,41.28-21.72,29.32-33.29,62.36-35.75,98.68-1.61,23.81,4.03,45.75,17.1,65.72,14.99,22.9,41.01,33.76,67.9,28.48,16.87-3.31,31.44-11.27,44.4-22.27,5.62-4.77,10.71-10.16,15.76-15ZM282.25,348.94c-.2-2.57-.33-7.42-1-12.2-1.9-13.45-5.97-26.27-12.07-38.39-7.95-15.81-12.29-32.7-15.56-49.95-2.09-10.99-4-22.04-6.56-32.92-4.83-20.54-16.21-36.13-35.21-46.15-15.26-8.05-30.79-9.61-47.1-4.17-11.17,3.73-21.33,9.47-31.3,15.59-10.36,6.36-20.63,12.87-31.04,19.14-9.63,5.8-19.69,10.78-30.35,14.38-8.88,2.99-17.5,6.5-25.61,11.21-14.36,8.34-26.47,19.06-35.08,33.41-10.04,16.73-13.09,34.5-7.32,53.37,3.72,12.14,10.4,22.33,20.94,29.73,7.13,5.01,15.13,8.11,23.49,10.29,12.25,3.2,24.87,4.2,37.34,6.12,9.28,1.43,18.61,2.94,27.64,5.44,15.11,4.19,27.96,12.86,40.35,22.19,9.76,7.35,19.31,15.02,29.44,21.83,12.75,8.57,26.83,13.03,42.52,11.07,19.01-2.37,34.3-10.93,44.96-26.97,8.16-12.29,11.28-26.14,11.55-43ZM707.36,187.09c-.44-4.2-.6-9.82-1.67-15.26-4.68-23.89-17.54-41.63-40.19-51.47-19.17-8.32-38.65-7.47-58.1-.88-14.26,4.83-26.26,13.48-37.61,23.06-5.24,4.42-10.83,8.15-17.14,10.83-7.85,3.33-14.68,8.16-20.58,14.28-8.82,9.15-15.65,19.68-20.95,31.16-15.75,34.04-21.06,69.65-15.15,106.73,2.51,15.76,8.08,30.15,19.35,42.21,15.19,16.25,33.33,25.84,55.65,26.99,24.14,1.24,45.63-5.99,63.94-21.63,16.06-13.72,29.03-30.07,40.01-48.2,21.72-35.87,30.26-75.19,32.44-117.81ZM1010.02,285.68c.04,12.34.72,22.86,2.96,33.23,2.31,10.67,5.81,20.91,12.65,29.59,7.56,9.59,17.07,15.47,29.93,14.21,13.01-1.28,22.36-12.65,20.56-25.58-1.57-11.24-1.19-22.38.58-33.53,3.07-19.34,7.78-38.3,12.92-57.17,5.1-18.73,10.22-37.45,15.17-56.22.97-3.66,1.93-7.58,1.63-11.27-.75-9.13-6.07-15.7-13.75-20.19-11.5-6.73-28.8-7.39-41.89,5.39-12.46,12.17-21.93,26.3-27.54,42.86-8.83,26.08-12.69,52.99-13.22,78.68ZM243.32,137.69c.27,3.01.37,6.04.85,9.02.49,3.03,1.15,6.08,2.1,9,5.72,17.46,20.36,28.29,39.56,28.14,12.96-.1,24.64-4.62,35.2-11.86,18.66-12.79,31.16-30.13,37.12-51.98,3.41-12.51,3.71-25.06-.71-37.47-5.65-15.85-19.69-26.15-36.51-26.78-11.77-.44-22.6,2.9-32.68,8.65-15.99,9.12-27.8,22.27-36.04,38.62-5.48,10.87-8.62,22.4-8.89,34.67ZM363.8,188.28c-4.78-.02-10.41.8-15.88,2.51-19.16,5.98-33.99,17.59-44.19,34.84-7.04,11.9-10.51,24.74-7.67,38.61,2.6,12.7,9.94,21.91,21.85,27.11,12.93,5.65,26.1,4.82,39.14.35,14.77-5.06,26.85-13.97,36.28-26.39,8.51-11.21,13.78-23.66,13.56-37.96-.21-13.5-5.57-24.46-16.89-32.13-7.59-5.14-16.17-7.01-26.21-6.94ZM104.39,119.71c-.6-5.12-.87-10.3-1.85-15.34-2.83-14.52-9.22-27.1-20.92-36.63-11.91-9.69-28.34-11.24-41.73-3.74-10.64,5.95-17.74,15.07-22.51,26.05-6.32,14.53-7.65,29.7-4.63,45.18,2.44,12.5,7.61,23.73,16.81,32.81,8.43,8.32,18.45,12.99,30.47,12.07,13.07-1,22.94-7.88,30.57-18.09,9.32-12.49,13.25-26.8,13.8-42.3ZM1134.18,101.87c0-22.92-20.79-39.03-42.33-32.81-15.49,4.47-30.02,24.08-22,45.47,6.38,17.01,23.9,26.09,40.6,21.09,13.86-4.15,23.74-18.2,23.73-33.75Z"/>
      <path d="M1345.74,305.04c-.08.1-.23.2-.25.31-1.11,6.58-5.16,11.56-9.04,16.65-4.35,5.71-9.98,9.91-15.84,13.9-19.46,13.24-40.17,23.95-62.76,30.77-19.52,5.9-39.34,7.32-59.36,2.73-21.76-4.99-38.17-17.67-50.64-35.79-10.61-15.41-16.58-32.66-19.25-51.04-3.5-24.06-1.93-47.82,6.27-70.8,8.99-25.19,24.3-46.14,44.76-63.31,18.61-15.63,39.72-26.3,63.61-31.2,21.32-4.38,42.46-3.78,63.02,3.69,21.38,7.77,33.69,23.64,37.39,45.71,3.42,20.39-.92,39.82-10.99,57.73-15.23,27.1-37.78,45.66-67.38,55.4-11.86,3.9-24.17,4.34-36.53,3.64-11.29-.64-22.19-3.24-32.97-6.47-.64-.19-1.28-.35-2.51-.68.42,3.72.54,7.19,1.22,10.54,2.94,14.34,13.23,23.2,28.48,24.77,12.84,1.32,25.18-1.22,37.33-4.93,17.53-5.35,33.92-13.19,49.4-22.96,5.89-3.72,12.14-5.48,19.01-3.45,8.43,2.49,13.69,8.16,16.14,16.54.26.88.58,1.75.88,2.62v5.65ZM1270.79,178.51c-.05.19-.1.37-.15.56-13.77.36-28.98,6.34-39.21,15.42-5.11,4.54-8.73,10.01-10.23,16.73-1.78,7.94,2.05,14.5,9.94,16.49,2.59.65,5.55.78,8.16.25,9.17-1.86,17.81-5.18,25.26-10.99,4.45-3.47,8.7-7.19,12.96-10.89,3.79-3.28,6.56-7.27,7.81-12.2,1.46-5.76-.39-10.39-5.75-12.92-2.72-1.28-5.85-1.67-8.79-2.46Z"/>
      <path d="M185.33,0c3.64.86,7.41,1.37,10.89,2.66,11.05,4.09,18.45,12.23,23.72,22.45,4.81,9.34,7.14,19.36,7.5,29.82.72,20.84-4.69,39.9-17.25,56.65-7.88,10.52-17.8,18.49-30.91,21.59-12.62,2.99-23.99.16-33.9-8.15-10.06-8.44-15.42-19.65-18.07-32.21-4.06-19.25-1.43-37.82,6.81-55.58,5.8-12.5,14.14-22.98,25.97-30.34,5.87-3.65,12.28-6,19.25-6.58.52-.04,1.04-.2,1.55-.31,1.48,0,2.96,0,4.44,0Z"/>
      <path d="M877.88,325.53c-5.05,4.84-10.14,10.23-15.76,15-12.95,11-27.53,18.96-44.4,22.27-26.9,5.28-52.92-5.57-67.9-28.48-13.07-19.97-18.71-41.9-17.1-65.72,2.46-36.32,14.04-69.36,35.75-98.68,11.9-16.07,26.14-29.83,42.54-41.28,27.75-19.37,56.96-21.06,87.23-6.58,6.95,3.32,13.47,7.53,20.37,11.44,1.47-3.5,3.11-7.35,4.71-11.22,10.25-24.72,21.03-49.18,34.7-72.26,5.62-9.49,12.43-18.02,20.18-25.85,10.57-10.68,24.68-10.07,35.35-5.26,11.04,4.97,17.92,16.86,16.49,29.76-.81,7.35-2.67,14.68-4.86,21.78-6.64,21.5-13.82,42.83-20.51,64.31-10.65,34.25-21.22,68.52-31.54,102.87-8.57,28.49-16.54,57.16-25.16,85.63-6.03,19.92-12.47,39.73-19.21,59.42-2.12,6.18-7.21,10.45-13.17,13.32-10.6,5.11-22.65,3.06-30.3-5.04-4.17-4.42-6.14-9.79-6.34-15.74-.46-13.57-.75-27.15-1.07-40.73-.07-3.13-.01-6.27-.01-8.96ZM793.21,284.43c.34,2.15.57,5.95,1.6,9.52,1.97,6.82,7.99,10.45,15.06,9.66,4.88-.55,9.43-2.14,13.76-4.37,12.82-6.6,23.72-15.74,33.67-26.05,11.75-12.17,21.9-25.5,28.66-41.14,4.69-10.85,5.38-21.77.28-32.77-6.95-14.98-21.46-22.49-37.21-19.04-8.16,1.79-14.22,6.78-19.37,13.03-9.06,10.99-16.88,22.77-22.88,35.73-7.9,17.08-12.46,35-13.57,55.43Z"/>
      <path d="M282.25,348.94c-.27,16.87-3.39,30.72-11.55,43-10.66,16.05-25.95,24.6-44.96,26.97-15.68,1.96-29.77-2.5-42.52-11.07-10.13-6.81-19.68-14.48-29.44-21.83-12.4-9.34-25.24-18.01-40.35-22.19-9.02-2.5-18.36-4.01-27.64-5.44-12.47-1.92-25.09-2.92-37.34-6.12-8.36-2.18-16.35-5.28-23.49-10.29-10.54-7.41-17.22-17.59-20.94-29.73-5.77-18.87-2.72-36.64,7.32-53.37,8.61-14.35,20.72-25.07,35.08-33.41,8.11-4.71,16.73-8.22,25.61-11.21,10.67-3.6,20.73-8.57,30.35-14.38,10.41-6.28,20.68-12.78,31.04-19.14,9.97-6.12,20.14-11.86,31.3-15.59,16.3-5.44,31.83-3.88,47.1,4.17,19.01,10.02,30.38,25.61,35.21,46.15,2.56,10.89,4.48,21.93,6.56,32.92,3.27,17.25,7.61,34.14,15.56,49.95,6.1,12.12,10.17,24.95,12.07,38.39.67,4.78.8,9.63,1,12.2Z"/>
      <path d="M707.36,187.09c-2.18,42.62-10.72,81.94-32.44,117.81-10.98,18.14-23.95,34.49-40.01,48.2-18.31,15.64-39.8,22.88-63.94,21.63-22.32-1.15-40.45-10.74-55.65-26.99-11.27-12.05-16.84-26.45-19.35-42.21-5.91-37.08-.6-72.69,15.15-106.73,5.31-11.47,12.14-22.01,20.95-31.16,5.9-6.12,12.73-10.95,20.58-14.28,6.31-2.68,11.9-6.4,17.14-10.83,11.35-9.58,23.35-18.23,37.61-23.06,19.44-6.59,38.93-7.44,58.1.88,22.65,9.84,35.51,27.58,40.19,51.47,1.06,5.44,1.23,11.05,1.67,15.26ZM568.35,291.83c1.6,5.19,3.06,10.21,4.73,15.16.59,1.76,1.59,3.41,2.62,4.98,4.52,6.9,9.92,8.16,16.8,3.61,8.5-5.63,16.21-12.2,22.64-20.2,15.85-19.71,25.64-42.12,29.96-66.97,1.56-8.95,2.8-17.95,2.12-27.06-.29-3.85-.78-7.79-1.93-11.45-1.6-5.09-5.24-6.41-9.78-3.56-3.26,2.04-6.34,4.58-8.97,7.39-15.27,16.34-26.58,35.23-35.47,55.66-1.95,4.47-2.85,8.88-2.65,13.83.63,15.63-5.78,22.97-17.75,27.67-.68.27-1.36.55-2.32.94Z"/>
      <path d="M1010.02,285.68c.52-25.69,4.39-52.6,13.22-78.68,5.6-16.56,15.07-30.69,27.54-42.86,13.1-12.78,30.39-12.12,41.89-5.39,7.68,4.49,13,11.06,13.75,20.19.3,3.69-.66,7.61-1.63,11.27-4.95,18.77-10.07,37.49-15.17,56.22-5.13,18.87-9.85,37.83-12.92,57.17-1.77,11.15-2.15,22.29-.58,33.53,1.81,12.92-7.55,24.3-20.56,25.58-12.86,1.26-22.37-4.62-29.93-14.21-6.84-8.68-10.35-18.91-12.65-29.59-2.24-10.37-2.93-20.89-2.96-33.23Z"/>
      <path d="M243.32,137.69c.26-12.27,3.4-23.8,8.89-34.67,8.24-16.35,20.05-29.5,36.04-38.62,10.09-5.75,20.91-9.09,32.68-8.65,16.82.63,30.87,10.93,36.51,26.78,4.42,12.41,4.12,24.97.71,37.47-5.96,21.85-18.46,39.19-37.12,51.98-10.56,7.24-22.24,11.75-35.2,11.86-19.2.15-33.85-10.67-39.56-28.14-.96-2.92-1.61-5.96-2.1-9-.48-2.97-.58-6.01-.85-9.02Z"/>
      <path d="M363.8,188.28c10.04-.08,18.62,1.8,26.21,6.94,11.32,7.67,16.68,18.63,16.89,32.13.22,14.3-5.05,26.76-13.56,37.96-9.43,12.42-21.52,21.33-36.28,26.39-13.04,4.46-26.2,5.3-39.14-.35-11.92-5.2-19.25-14.41-21.85-27.11-2.84-13.87.63-26.7,7.67-38.61,10.2-17.25,25.02-28.86,44.19-34.84,5.47-1.71,11.1-2.53,15.88-2.51Z"/>
      <path d="M104.39,119.71c-.55,15.5-4.48,29.81-13.8,42.3-7.62,10.22-17.5,17.09-30.57,18.09-12.02.92-22.04-3.75-30.47-12.07-9.2-9.08-14.37-20.31-16.81-32.81-3.02-15.48-1.69-30.64,4.63-45.18,4.77-10.98,11.87-20.09,22.51-26.05,13.39-7.5,29.82-5.95,41.73,3.74,11.7,9.53,18.09,22.1,20.92,36.63.98,5.04,1.26,10.23,1.85,15.34Z"/>
      <path d="M1134.18,101.87c0,15.56-9.87,29.61-23.73,33.75-16.7,5-34.22-4.09-40.6-21.09-8.02-21.39,6.51-40.99,22-45.47,21.55-6.22,42.33,9.89,42.33,32.81Z"/>
      <path class="cls-1" d="M1270.79,178.51c2.94.79,6.08,1.18,8.79,2.46,5.36,2.52,7.21,7.15,5.75,12.92-1.25,4.93-4.03,8.91-7.81,12.2-4.27,3.69-8.52,7.42-12.96,10.89-7.45,5.82-16.09,9.14-25.26,10.99-2.61.53-5.57.4-8.16-.25-7.9-1.98-11.72-8.54-9.94-16.49,1.5-6.73,5.12-12.2,10.23-16.73,10.23-9.08,25.45-15.06,39.21-15.42.05-.19.1-.37.15-.56Z"/>
      <path class="cls-1" d="M793.21,284.43c1.1-20.44,5.66-38.35,13.57-55.43,5.99-12.95,13.82-24.74,22.88-35.73,5.15-6.25,11.21-11.24,19.37-13.03,15.74-3.45,30.26,4.06,37.21,19.04,5.1,11,4.41,21.92-.28,32.77-6.76,15.64-16.92,28.97-28.66,41.14-9.95,10.3-20.84,19.45-33.67,26.05-4.32,2.23-8.87,3.82-13.76,4.37-7.07.79-13.1-2.84-15.06-9.66-1.03-3.57-1.26-7.37-1.6-9.52Z"/>
      <path class="cls-1" d="M568.35,291.83c.96-.39,1.64-.68,2.32-.94,11.97-4.7,18.38-12.04,17.75-27.67-.2-4.95.7-9.36,2.65-13.83,8.9-20.43,20.2-39.32,35.47-55.66,2.63-2.81,5.71-5.35,8.97-7.39,4.54-2.84,8.18-1.53,9.78,3.56,1.15,3.66,1.65,7.6,1.93,11.45.67,9.11-.57,18.12-2.12,27.06-4.32,24.84-14.12,47.25-29.96,66.97-6.43,8-14.13,14.57-22.64,20.2-6.88,4.55-12.28,3.29-16.8-3.61-1.03-1.56-2.02-3.22-2.62-4.98-1.67-4.95-3.13-9.97-4.73-15.16Z"/>
      <path d="M1270.64,179.07s3.23-.05,9.23,1.95-5-4-5-4l-4,1-.23,1.05Z"/>
    </g>
  </g>
</svg>